0
SECTION
2
HEADER
9
$INSUNITS
70
5
9
$ACADVER
1
AC1014
9
$HANDSEED
5
FFFF
0
ENDSEC
0
SECTION
2
TABLES
0
TABLE
2
VPORT
5
8
100
AcDbSymbolTable
0
ENDTAB
0
TABLE
2
LTYPE
5
5
100
AcDbSymbolTable
0
LTYPE
5
14
100
AcDbSymbolTableRecord
100
AcDbLinetypeTableRecord
2
BYBLOCK
70
0
0
LTYPE
5
15
100
AcDbSymbolTableRecord
100
AcDbLinetypeTableRecord
2
BYLAYER
70
0
0
ENDTAB
0
TABLE
2
LAYER
5
2
100
AcDbSymbolTable
70
2
0
LAYER
5
50
100
AcDbSymbolTableRecord
100
AcDbLayerTableRecord
2
0
70
0
6
CONTINUOUS
0
ENDTAB
0
TABLE
2
STYLE
5
3
100
AcDbSymbolTable
70
1
0
STYLE
5
11
100
AcDbSymbolTableRecord
100
AcDbTextStyleTableRecord
2
STANDARD
70
0
0
ENDTAB
0
TABLE
2
VIEW
5
6
100
AcDbSymbolTable
70
0
0
ENDTAB
0
TABLE
2
UCS
5
7
100
AcDbSymbolTable
70
0
0
ENDTAB
0
TABLE
2
APPID
5
9
100
AcDbSymbolTable
70
2
0
APPID
5
12
100
AcDbSymbolTableRecord
100
AcDbRegAppTableRecord
2
ACAD
70
0
0
ENDTAB
0
TABLE
2
DIMSTYLE
5
A
100
AcDbSymbolTable
70
1
0
ENDTAB
0
TABLE
2
BLOCK_RECORD
5
1
100
AcDbSymbolTable
70
1
0
BLOCK_RECORD
5
1F
100
AcDbSymbolTableRecord
100
AcDbBlockTableRecord
2
*MODEL_SPACE
0
BLOCK_RECORD
5
1B
100
AcDbSymbolTableRecord
100
AcDbBlockTableRecord
2
*PAPER_SPACE
0
ENDTAB
0
ENDSEC
0
SECTION
2
BLOCKS
0
BLOCK
5
20
100
AcDbEntity
100
AcDbBlockBegin
2
*MODEL_SPACE
0
ENDBLK
5
21
100
AcDbEntity
100
AcDbBlockEnd
0
BLOCK
5
1C
100
AcDbEntity
100
AcDbBlockBegin
2
*PAPER_SPACE
0
ENDBLK
5
1D
100
AcDbEntity
100
AcDbBlockEnd
0
ENDSEC
0
SECTION
2
ENTITIES
0
CIRCLE
5
100
100
AcDbEntity
8
0
100
AcDbCircle
10
-1.5224143029633677
20
2.7250000000000005
30
0
40
0.15000000000000002
0
CIRCLE
5
101
100
AcDbEntity
8
0
100
AcDbCircle
10
1.5275856970366326
20
2.7250000000000005
30
0
40
0.14999999999999991
0
ARC
5
102
100
AcDbEntity
8
0
100
AcDbCircle
10
-1.5257020940472994
20
2.7260966476772959
30
0
40
0.25292031171483026
100
AcDbArc
50
0.045608576665016602
51
180.05233925604765
0
ARC
5
103
100
AcDbEntity
8
0
100
AcDbCircle
10
1.5275856970366326
20
2.725000000000001
30
0
40
0.25146933256920556
100
AcDbArc
50
0.13287989664023156
51
180
0
ARC
5
104
100
AcDbEntity
8
0
100
AcDbCircle
10
0.54056183065138685
20
3.3358818039846998
30
0
40
1.9130624117339388
100
AcDbArc
50
198.58087534527394
51
228.57290333651846
0
ARC
5
105
100
AcDbEntity
8
0
100
AcDbCircle
10
-0.5288437754703037
20
3.3284631502464004
30
0
40
1.9031681242464809
100
AcDbArc
50
311.42709666348151
51
341.51336319180939
0
ARC
5
106
100
AcDbEntity
8
0
100
AcDbCircle
10
0.0025856970366329723
20
2.7262491089316798
30
0
40
1.1000000000000008
100
AcDbArc
50
228.57290333651855
51
311.42709666348145
0
CIRCLE
5
107
100
AcDbEntity
8
0
100
AcDbCircle
10
-1.5224143029633677
20
-2.7249999999999996
30
0
40
0.14999999999999988
0
CIRCLE
5
108
100
AcDbEntity
8
0
100
AcDbCircle
10
1.5275856970366326
20
-2.7249999999999996
30
0
40
0.14999999999999991
0
ARC
5
109
100
AcDbEntity
8
0
100
AcDbCircle
10
-1.5237471329599943
20
-2.7256688275507934
30
0
40
0.25427293078242502
100
AcDbArc
50
179.78569482945099
51
352.0661451982503
0
ARC
5
110
100
AcDbEntity
8
0
100
AcDbCircle
10
1.5275856970366326
20
-2.7249999999999996
30
0
40
0.2500000014901157
100
AcDbArc
50
-171.96444381582737
51
0
0
LINE
5
111
100
AcDbEntity
8
0
100
AcDbLine
10
-1.7780182850958426
20
-2.7247177648860923
30
0
11
-1.7759518114057993
21
-2.0502601948463859
31
0
0
LINE
5
112
100
AcDbEntity
8
0
100
AcDbLine
10
-1.7786216307499423
20
2.7258656075520693
30
0
11
-1.7770833206440519
21
2.0530318728135413
31
0
0
ARC
5
113
100
AcDbEntity
8
0
100
AcDbCircle
10
-3.8609651516408516
20
0.00040462684211881831
30
0
40
2.7060868778152578
100
AcDbArc
50
-33.65220120093128
51
33.691654140657562
0
ARC
5
114
100
AcDbEntity
8
0
100
AcDbCircle
10
0.0040828590586719834
20
-2.9999428937124986
30
0
40
1.3028359499468802
100
AcDbArc
50
19.323404631846099
51
160.70305557595941
0
ARC
5
115
100
AcDbEntity
8
0
100
AcDbCircle
10
-0.77595650499593327
20
-2.0533240841619809
30
0
40
1.0000000030169323
100
AcDbArc
50
146.34779879906873
51
179.82445179868515
0
ARC
5
116
100
AcDbEntity
8
0
100
AcDbCircle
10
-0.77878558691327815
20
2.0553143054797354
30
0
40
0.99830034291833969
100
AcDbArc
50
180.1309965218922
51
213.69165488664086
0
ARC
5
117
100
AcDbEntity
8
0
100
AcDbCircle
10
0.28985880672495856
20
-2.8997345092540772
30
0
40
0.99999999999983225
100
AcDbArc
50
8.0355561841725098
51
19.323404631847808
0
ARC
5
118
100
AcDbEntity
8
0
100
AcDbCircle
10
-0.28699046341251749
20
-2.8980278917303823
30
0
40
0.9944362969115631
100
AcDbArc
50
160.70305559615019
51
172.06614573517149
0
LWPOLYLINE
5
119
100
AcDbEntity
8
0
100
AcDbPolyline
90
6
70
1
43
0.0
10
0.086602540378444171
20
-0.049999988079071467
10
0.6062177929729341
20
-0.95000000596046452
42
-0.57735026918962629
10
0.51961525259449015
20
-1.1000000059604647
10
-0.5196152525944906
20
-1.100000005960464
42
-0.57735026918962495
10
-0.60621779297293421
20
-0.95000000596046397
10
-0.086602540378443504
20
-0.049999988079071397
42
-0.57735026918962584
0
LWPOLYLINE
5
120
100
AcDbEntity
8
0
100
AcDbPolyline
90
6
70
1
43
0.0
10
-0.6495190631621558
20
-0.5517949252035762
10
-0.40789927866152292
20
-0.1332971823346373
42
0.59278258167143372
10
-0.4990989573284324
20
0.016597093375018614
10
-0.74071874182906572
20
0.0054777418937872469
42
0.40080736085092833
10
-0.83612160354059994
20
-0.094416533815868564
10
-0.83612160354059983
20
-0.50179492520357605
42
0.76732698797895715
0
LWPOLYLINE
5
121
100
AcDbEntity
8
0
100
AcDbPolyline
90
6
70
1
43
0.0
10
0.40789927866152181
20
-0.13329718233463461
10
0.64951906316215702
20
-0.55179492520357831
42
0.76732698797896193
10
0.83612160354060083
20
-0.50179492520357827
10
0.83612160354060006
20
-0.094416533815867287
42
0.40080736085092833
10
0.74071874182906539
20
0.0054777418937883311
10
0.49909895732842807
20
0.016597093375019523
42
0.59278258167145426
0
LINE
5
122
100
AcDbEntity
8
0
100
AcDbLine
10
0
20
0
30
0
11
-3.3709871492145537e-05
21
-0.42467674754479812
31
0
0
LWPOLYLINE
5
123
100
AcDbEntity
8
0
100
AcDbPolyline
90
6
70
1
43
0.0
10
-0.60621779297293421
20
-0.95000000596046397
10
-0.086602540378443504
20
-0.049999988079071397
42
-0.57735026918962584
10
0.086602540378444171
20
-0.049999988079071467
10
0.6062177929729341
20
-0.95000000596046452
42
-0.57735026918962629
10
0.51961525259449015
20
-1.1000000059604647
10
-0.5196152525944906
20
-1.100000005960464
42
-0.57735026918962495
0
LWPOLYLINE
5
124
100
AcDbEntity
8
0
100
AcDbPolyline
90
6
70
1
43
0.0
10
0.30310890164838039
20
0.29999999403953553
10
-0.30310890164838061
20
0.29999999403953592
42
-0.5773502691896264
10
-0.36806080693221338
20
0.41249999403953574
10
-0.064951905283832573
20
0.93750001192092824
42
-0.57735026918962584
10
0.064951905283833211
20
0.93750001192092802
10
0.36806080693221332
20
0.41249999403953547
42
-0.57735026918962595
0
ARC
5
125
100
AcDbEntity
8
0
100
AcDbCircle
10
3.8609651654710127
20
-0.00020832377210964017
30
0
40
2.7060868718239997
100
AcDbArc
50
146.29924984280032
51
213.64310518438671
0
LINE
5
126
100
AcDbEntity
8
0
100
AcDbLine
10
1.7790543533233572
20
2.7255832050676201
30
0
11
1.7774092263046097
21
2.0527497231971674
31
0
0
ARC
5
127
100
AcDbEntity
8
0
100
AcDbCircle
10
0.77911186774981755
20
2.0551906378000622
30
0
40
0.99830034334492301
100
AcDbArc
50
326.29924928200825
51
359.85990764675608
0
ARC
5
128
100
AcDbEntity
8
0
100
AcDbCircle
10
0.77563052004958388
20
-2.0534472450399468
30
0
40
1.0000000000354627
100
AcDbArc
50
0.16645218477148657
51
33.643105184386727
0
LINE
5
129
100
AcDbEntity
8
0
100
AcDbLine
10
1.7775856985267486
20
-2.7249999999999996
30
0
11
1.7756263001726644
21
-2.0505421104548938
31
0
0
ENDSEC
0
SECTION
2
OBJECTS
0
DICTIONARY
5
C
100
AcDbDictionary
3
ACAD_GROUP
350
D
3
ACAD_MLINESTYLE
350
17
0
DICTIONARY
5
D
100
AcDbDictionary
0
DICTIONARY
5
1A
330
C
100
AcDbDictionary
0
DICTIONARY
5
17
100
AcDbDictionary
0
ENDSEC
0
EOF
