0
SECTION
2
HEADER
9
$INSUNITS
70
5
9
$ACADVER
1
AC1014
9
$HANDSEED
5
FFFF
0
ENDSEC
0
SECTION
2
TABLES
0
TABLE
2
VPORT
5
8
100
AcDbSymbolTable
0
ENDTAB
0
TABLE
2
LTYPE
5
5
100
AcDbSymbolTable
0
LTYPE
5
14
100
AcDbSymbolTableRecord
100
AcDbLinetypeTableRecord
2
BYBLOCK
70
0
0
LTYPE
5
15
100
AcDbSymbolTableRecord
100
AcDbLinetypeTableRecord
2
BYLAYER
70
0
0
ENDTAB
0
TABLE
2
LAYER
5
2
100
AcDbSymbolTable
70
2
0
LAYER
5
50
100
AcDbSymbolTableRecord
100
AcDbLayerTableRecord
2
0
70
0
6
CONTINUOUS
0
ENDTAB
0
TABLE
2
STYLE
5
3
100
AcDbSymbolTable
70
1
0
STYLE
5
11
100
AcDbSymbolTableRecord
100
AcDbTextStyleTableRecord
2
STANDARD
70
0
0
ENDTAB
0
TABLE
2
VIEW
5
6
100
AcDbSymbolTable
70
0
0
ENDTAB
0
TABLE
2
UCS
5
7
100
AcDbSymbolTable
70
0
0
ENDTAB
0
TABLE
2
APPID
5
9
100
AcDbSymbolTable
70
2
0
APPID
5
12
100
AcDbSymbolTableRecord
100
AcDbRegAppTableRecord
2
ACAD
70
0
0
ENDTAB
0
TABLE
2
DIMSTYLE
5
A
100
AcDbSymbolTable
70
1
0
ENDTAB
0
TABLE
2
BLOCK_RECORD
5
1
100
AcDbSymbolTable
70
1
0
BLOCK_RECORD
5
1F
100
AcDbSymbolTableRecord
100
AcDbBlockTableRecord
2
*MODEL_SPACE
0
BLOCK_RECORD
5
1B
100
AcDbSymbolTableRecord
100
AcDbBlockTableRecord
2
*PAPER_SPACE
0
ENDTAB
0
ENDSEC
0
SECTION
2
BLOCKS
0
BLOCK
5
20
100
AcDbEntity
100
AcDbBlockBegin
2
*MODEL_SPACE
0
ENDBLK
5
21
100
AcDbEntity
100
AcDbBlockEnd
0
BLOCK
5
1C
100
AcDbEntity
100
AcDbBlockBegin
2
*PAPER_SPACE
0
ENDBLK
5
1D
100
AcDbEntity
100
AcDbBlockEnd
0
ENDSEC
0
SECTION
2
ENTITIES
0
LINE
5
100
100
AcDbEntity
8
0
100
AcDbLine
10
-9.0583054708586133
20
-7.929228765759639
30
0
11
-9.1643229292936077
21
-7.8231142120594797
31
0
0
ARC
5
101
100
AcDbEntity
8
0
100
AcDbCircle
10
-9.2704374829937457
20
-7.929131670494499
30
0
40
0.15000000000000174
100
AcDbArc
50
44.973775063661925
51
224.973775063636
0
LINE
5
102
100
AcDbEntity
8
0
100
AcDbLine
10
-9.3765520366939299
20
-8.0351491289294685
30
0
11
-9.2705345782589355
21
-8.1412636826296279
31
0
0
ARC
5
103
100
AcDbEntity
8
0
100
AcDbCircle
10
-9.1644200245587726
20
-8.0352462241946334
30
0
40
0.15000000000000174
100
AcDbArc
50
-135.02622493635153
51
44.973775063649448
0
LINE
5
104
100
AcDbEntity
8
0
100
AcDbLine
10
-9.1644200245587726
20
-8.0352462241946334
30
0
11
-9.2704374829937457
21
-7.929131670494499
31
0
0
LINE
5
105
100
AcDbEntity
8
0
100
AcDbLine
10
-7.9274525808853316
20
-9.0611173385613437
30
0
11
-7.8214351224503371
21
-9.167231892261503
31
0
0
ARC
5
106
100
AcDbEntity
8
0
100
AcDbCircle
10
-7.9275496761504982
20
-9.2732493506964992
30
0
40
0.15000000000000049
100
AcDbArc
50
-135.02622493635101
51
44.973775063649448
0
ARC
5
107
100
AcDbEntity
8
0
100
AcDbCircle
10
-8.0335671345854927
20
-9.1671347969963399
30
0
40
0.15000000000000174
100
AcDbArc
50
44.973775063649448
51
224.97377506364899
0
LINE
5
108
100
AcDbEntity
8
0
100
AcDbLine
10
-8.0336642298506593
20
-9.3792668091314937
30
0
11
-8.1396816882856537
21
-9.2731522554313344
31
0
0
CIRCLE
5
109
100
AcDbEntity
8
0
100
AcDbCircle
10
-8.5989935795721344
20
-8.6011905105954867
30
0
40
0.45000000000000018
0
ARC
5
110
100
AcDbEntity
8
0
100
AcDbCircle
10
-8.5989935795721451
20
-8.6011905105954902
30
0
40
0.69999999999999363
100
AcDbArc
50
186.70480183621635
51
263.24274829108305
0
LINE
5
111
100
AcDbEntity
8
0
100
AcDbLine
10
-7.9275496761504982
20
-9.2732493506964992
30
0
11
-7.7593639015233018
21
-9.4408387408011656
31
0
0
ARC
5
112
100
AcDbEntity
8
0
100
AcDbCircle
10
-7.8953939946138121
20
-9.0527812120440245
30
0
40
0.41804881226511109
100
AcDbArc
50
250.53583063459857
51
277.47945752289365
0
LINE
5
113
100
AcDbEntity
8
0
100
AcDbLine
10
-7.7539933525901965
20
-9.3681239364301767
30
0
11
-7.7539933525901965
21
-9.0795921551903156
31
0
0
ARC
5
114
100
AcDbEntity
8
0
100
AcDbCircle
10
-7.8539933525901944
20
-9.3681239364301767
30
0
40
0.10000000000000041
100
AcDbArc
50
-82.520542477106616
51
0
0
CIRCLE
5
115
100
AcDbEntity
8
0
100
AcDbCircle
10
-8.5989935795721344
20
8.6011905105954867
30
0
40
0.45000000000000018
0
ARC
5
116
100
AcDbEntity
8
0
100
AcDbCircle
10
-8.5989935795721451
20
8.6011905105954902
30
0
40
0.69999999999999363
100
AcDbArc
50
96.757251708916954
51
173.29519816378365
0
LINE
5
117
100
AcDbEntity
8
0
100
AcDbLine
10
-8.0336642298506593
20
9.3792668091314937
30
0
11
-8.1396816882856537
21
9.2731522554313344
31
0
0
ARC
5
118
100
AcDbEntity
8
0
100
AcDbCircle
10
-8.0335671345854927
20
9.1671347969963399
30
0
40
0.15000000000000049
100
AcDbArc
50
135.02622493635101
51
315.02622493635056
0
LINE
5
119
100
AcDbEntity
8
0
100
AcDbLine
10
-7.9274525808853316
20
9.0611173385613437
30
0
11
-7.8214351224503371
21
9.167231892261503
31
0
0
ARC
5
120
100
AcDbEntity
8
0
100
AcDbCircle
10
-7.9275496761504982
20
9.2732493506964992
30
0
40
0.15000000000000174
100
AcDbArc
50
-44.973775063649455
51
135.02622493635101
0
ARC
5
121
100
AcDbEntity
8
0
100
AcDbCircle
10
-9.1644200245587761
20
8.0352462241946334
30
0
40
0.15000000000000174
100
AcDbArc
50
-44.973775063648489
51
135.02622493635053
0
ARC
5
122
100
AcDbEntity
8
0
100
AcDbCircle
10
-9.270437482993751
20
7.9291316704944919
30
0
40
0.15000000000000049
100
AcDbArc
50
135.02622493636062
51
315.02622493634146
0
LINE
5
123
100
AcDbEntity
8
0
100
AcDbLine
10
-9.0583054708586133
20
7.929228765759639
30
0
11
-9.1643229292936077
21
7.8231142120594797
31
0
0
LINE
5
124
100
AcDbEntity
8
0
100
AcDbLine
10
-9.3765520366939299
20
8.0351491289294685
30
0
11
-9.2705345782589355
21
8.1412636826296279
31
0
0
LINE
5
125
100
AcDbEntity
8
0
100
AcDbLine
10
9.0583054708586133
20
-7.929228765759639
30
0
11
9.1643229292936077
21
-7.8231142120594797
31
0
0
ARC
5
126
100
AcDbEntity
8
0
100
AcDbCircle
10
9.1644200245587726
20
-8.0352462241946352
30
0
40
0.15000000000000049
100
AcDbArc
50
135.02622493635008
51
315.02622493635198
0
ARC
5
127
100
AcDbEntity
8
0
100
AcDbCircle
10
9.2704374829937528
20
-7.9291316704944901
30
0
40
0.15000000000000049
100
AcDbArc
50
-44.973775063640346
51
135.0262249363424
0
LINE
5
128
100
AcDbEntity
8
0
100
AcDbLine
10
9.3765520366939299
20
-8.0351491289294685
30
0
11
9.2705345782589355
21
-8.1412636826296279
31
0
0
CIRCLE
5
129
100
AcDbEntity
8
0
100
AcDbCircle
10
8.5989935795721344
20
-8.6011905105954867
30
0
40
0.45000000000000018
0
LINE
5
130
100
AcDbEntity
8
0
100
AcDbLine
10
8.0336642298506593
20
-9.3792668091314937
30
0
11
8.1396816882856537
21
-9.2731522554313344
31
0
0
ARC
5
131
100
AcDbEntity
8
0
100
AcDbCircle
10
8.0335671345854927
20
-9.1671347969963399
30
0
40
0.15000000000000049
100
AcDbArc
50
-44.973775063648944
51
135.02622493635053
0
LINE
5
132
100
AcDbEntity
8
0
100
AcDbLine
10
7.9274525808853316
20
-9.0611173385613437
30
0
11
7.8214351224503371
21
-9.167231892261503
31
0
0
ARC
5
133
100
AcDbEntity
8
0
100
AcDbCircle
10
7.9275496761504982
20
-9.2732493506964992
30
0
40
0.15000000000000174
100
AcDbArc
50
135.02622493635053
51
315.02622493635107
0
LINE
5
134
100
AcDbEntity
8
0
100
AcDbLine
10
9.3765520366939299
20
8.0351491289294685
30
0
11
9.2705345782589355
21
8.1412636826296314
31
0
0
ARC
5
135
100
AcDbEntity
8
0
100
AcDbCircle
10
9.270437482993751
20
7.9291316704944919
30
0
40
0.15000000000000049
100
AcDbArc
50
-135.02622493634144
51
44.97377506363938
0
LINE
5
136
100
AcDbEntity
8
0
100
AcDbLine
10
9.0583054708586133
20
7.929228765759639
30
0
11
9.1643229292936077
21
7.8231142120594797
31
0
0
ARC
5
137
100
AcDbEntity
8
0
100
AcDbCircle
10
9.1644200245587761
20
8.0352462241946334
30
0
40
0.15000000000000174
100
AcDbArc
50
44.973775063650407
51
224.97377506364847
0
ARC
5
138
100
AcDbEntity
8
0
100
AcDbCircle
10
8.5989935795721451
20
8.6011905105954902
30
0
40
0.69999999999998797
100
AcDbArc
50
6.704801836212491
51
83.242748291083032
0
CIRCLE
5
139
100
AcDbEntity
8
0
100
AcDbCircle
10
8.5989935795721344
20
8.6011905105954867
30
0
40
0.45000000000000018
0
ARC
5
140
100
AcDbEntity
8
0
100
AcDbCircle
10
7.9275496761504982
20
9.273249350696501
30
0
40
0.14999999999999925
100
AcDbArc
50
44.973775063648496
51
224.97377506364847
0
ARC
5
141
100
AcDbEntity
8
0
100
AcDbCircle
10
8.0335671345854927
20
9.1671347969963382
30
0
40
0.15000000000000049
100
AcDbArc
50
-135.02622493635101
51
44.973775063649448
0
LINE
5
142
100
AcDbEntity
8
0
100
AcDbLine
10
8.0336642298506593
20
9.3792668091314937
30
0
11
8.1396816882856537
21
9.2731522554313344
31
0
0
LINE
5
143
100
AcDbEntity
8
0
100
AcDbLine
10
7.9274525808853316
20
9.0611173385613437
30
0
11
7.8214351224503371
21
9.1672318922615084
31
0
0
CIRCLE
5
144
100
AcDbEntity
8
0
100
AcDbCircle
10
-1.5249999999999999
20
1.5250000000000006
30
0
40
0.15000000000000002
0
CIRCLE
5
145
100
AcDbEntity
8
0
100
AcDbCircle
10
1.5249999999999999
20
1.5250000000000006
30
0
40
0.15000000000000013
0
CIRCLE
5
146
100
AcDbEntity
8
0
100
AcDbCircle
10
1.5249999999999999
20
-1.5250000000000006
30
0
40
0.15000000000000002
0
CIRCLE
5
147
100
AcDbEntity
8
0
100
AcDbCircle
10
-1.5249999999999999
20
-1.5250000000000006
30
0
40
0.15000000000000011
0
CIRCLE
5
148
100
AcDbEntity
8
0
100
AcDbCircle
10
1
20
-0.99999999999999978
30
0
40
0.10000000000000009
0
CIRCLE
5
149
100
AcDbEntity
8
0
100
AcDbCircle
10
1
20
0.99999999999999978
30
0
40
0.10000000000000009
0
CIRCLE
5
150
100
AcDbEntity
8
0
100
AcDbCircle
10
-1
20
0.99999999999999978
30
0
40
0.099999999999999964
0
CIRCLE
5
151
100
AcDbEntity
8
0
100
AcDbCircle
10
-1
20
-0.99999999999999978
30
0
40
0.10000000000000005
0
ARC
5
152
100
AcDbEntity
8
0
100
AcDbCircle
10
-4.5132695264944127
20
1.7763568394002505e-15
30
0
40
3.0258837993067473
100
AcDbArc
50
-6.119729116490638
51
6.119729116490519
0
ARC
5
153
100
AcDbEntity
8
0
100
AcDbCircle
10
4.5132695264944127
20
1.7763568394002505e-15
30
0
40
3.0258837993067469
100
AcDbArc
50
173.88027088350961
51
186.1197291164905
0
CIRCLE
5
154
100
AcDbEntity
8
0
100
AcDbCircle
10
-1.5249999999999999
20
2.7250000000000005
30
0
40
0.14999999999999994
0
CIRCLE
5
155
100
AcDbEntity
8
0
100
AcDbCircle
10
1.5249999999999999
20
2.7250000000000005
30
0
40
0.14999999999999991
0
ARC
5
156
100
AcDbEntity
8
0
100
AcDbCircle
10
-1.5249999999999999
20
2.7250000000000005
30
0
40
0.27499999999999991
100
AcDbArc
50
0
51
180
0
LINE
5
157
100
AcDbEntity
8
0
100
AcDbLine
10
-1.8
20
2.7250000000000005
30
0
11
-1.8
21
2.6593037122098981
31
0
0
LINE
5
158
100
AcDbEntity
8
0
100
AcDbLine
10
-1.25
20
2.7250000000000005
30
0
11
-1.25
21
2.5367673740179457
31
0
0
LINE
5
159
100
AcDbEntity
8
0
100
AcDbLine
10
1.25
20
2.7250000000000005
30
0
11
1.25
21
2.5367673740179448
31
0
0
ARC
5
160
100
AcDbEntity
8
0
100
AcDbCircle
10
1.5249999999999999
20
2.7250000000000005
30
0
40
0.27500000000000013
100
AcDbArc
50
0
51
180
0
LINE
5
161
100
AcDbEntity
8
0
100
AcDbLine
10
1.8
20
2.7250000000000005
30
0
11
1.8
21
2.6593037122098986
31
0
0
LINE
5
162
100
AcDbEntity
8
0
100
AcDbLine
10
-2.0560660171779817
20
2.5532376950319158
30
0
11
-7.1682069149632888
21
7.6653785928172198
31
0
0
LINE
5
163
100
AcDbEntity
8
0
100
AcDbLine
10
-7.6624084837886084
20
7.1696306679813819
30
0
11
-2.1364572771902637
21
1.643679461383039
31
0
0
LINE
5
164
100
AcDbEntity
8
0
100
AcDbLine
10
2.0560660171779821
20
2.5532376950319158
30
0
11
7.1682069149632888
21
7.6653785928172198
31
0
0
LINE
5
165
100
AcDbEntity
8
0
100
AcDbLine
10
7.6624084837886084
20
7.1696306679813819
30
0
11
2.1364572771902619
21
1.6436794613830366
31
0
0
LINE
5
166
100
AcDbEntity
8
0
100
AcDbLine
10
7.6624084837886084
20
-7.1696306679813819
30
0
11
2.1364572771902637
21
-1.6436794613830372
31
0
0
ARC
5
167
100
AcDbEntity
8
0
100
AcDbCircle
10
-1.7763568394002505e-15
20
5.1865314086117307
30
0
40
3.661531408611729
100
AcDbArc
50
264.61021113998345
51
275.38978886001661
0
ARC
5
168
100
AcDbEntity
8
0
100
AcDbCircle
10
0.25000000000000017
20
2.5367673740179444
30
0
40
0.99999999999999978
100
AcDbArc
50
-84.610211139983463
51
0
0
ARC
5
169
100
AcDbEntity
8
0
100
AcDbCircle
10
-0.25000000000000028
20
2.5367673740179453
30
0
40
0.99999999999999978
100
AcDbArc
50
180
51
264.61021113998345
0
LINE
5
170
100
AcDbEntity
8
0
100
AcDbLine
10
-1.4270576496097731
20
-0.9320829027791917
30
0
11
-1.2845086116024795
21
-0.78953386477189791
31
0
0
LINE
5
171
100
AcDbEntity
8
0
100
AcDbLine
10
-1.4270576496097731
20
0.9320829027791917
30
0
11
-1.2845086116024795
21
0.78953386477189791
31
0
0
LWPOLYLINE
5
172
100
AcDbEntity
8
0
100
AcDbPolyline
90
4
70
1
43
0.0
10
-1.4270576496097722
20
0.93208290277919159
42
-0.093385733504540103
10
-1.4270576496097731
20
-0.9320829027791917
10
-1.1532533822127933
20
-0.65827863538221165
42
0.089060083202630133
10
-1.1532533822127928
20
0.65827863538221232
0
LWPOLYLINE
5
173
100
AcDbEntity
8
0
100
AcDbPolyline
90
4
70
1
43
0.0
10
1.4270576496097718
20
-0.9320829027791917
42
-0.09338573350454088
10
1.4270576496097731
20
0.9320829027791917
10
1.1532533822127933
20
0.65827863538221232
42
0.089060083202629897
10
1.1532533822127933
20
-0.65827863538221187
0
LINE
5
174
100
AcDbEntity
8
0
100
AcDbLine
10
-1.8
20
-2.7250000000000005
30
0
11
-1.8
21
-2.6593037122098959
31
0
0
ARC
5
175
100
AcDbEntity
8
0
100
AcDbCircle
10
-1.5249999999999999
20
-2.7250000000000005
30
0
40
0.27500000000000013
100
AcDbArc
50
-180
51
0
0
CIRCLE
5
176
100
AcDbEntity
8
0
100
AcDbCircle
10
-1.5249999999999999
20
-2.7250000000000005
30
0
40
0.14999999999999994
0
ARC
5
177
100
AcDbEntity
8
0
100
AcDbCircle
10
-0.25000000000000028
20
-2.5367673740179453
30
0
40
0.99999999999999978
100
AcDbArc
50
95.389788860016566
51
180
0
LINE
5
178
100
AcDbEntity
8
0
100
AcDbLine
10
-1.25
20
-2.7250000000000005
30
0
11
-1.25
21
-2.5367673740179457
31
0
0
ARC
5
179
100
AcDbEntity
8
0
100
AcDbCircle
10
0.25000000000000017
20
-2.5367673740179444
30
0
40
0.99999999999999978
100
AcDbArc
50
0
51
84.610211139983434
0
ARC
5
180
100
AcDbEntity
8
0
100
AcDbCircle
10
-1.7763568394002505e-15
20
-5.1865314086117307
30
0
40
3.6615314086117299
100
AcDbArc
50
84.610211139983349
51
95.389788860016594
0
ARC
5
181
100
AcDbEntity
8
0
100
AcDbCircle
10
1.5249999999999999
20
-2.7250000000000005
30
0
40
0.27499999999999991
100
AcDbArc
50
-180
51
0
0
LINE
5
182
100
AcDbEntity
8
0
100
AcDbLine
10
1.25
20
-2.7250000000000005
30
0
11
1.25
21
-2.5367673740179448
31
0
0
LINE
5
183
100
AcDbEntity
8
0
100
AcDbLine
10
1.8
20
-2.7250000000000005
30
0
11
1.8
21
-2.6593037122098986
31
0
0
CIRCLE
5
184
100
AcDbEntity
8
0
100
AcDbCircle
10
1.5249999999999999
20
-2.7250000000000005
30
0
40
0.14999999999999991
0
LINE
5
185
100
AcDbEntity
8
0
100
AcDbLine
10
2.0560660171779825
20
-2.5532376950319158
30
0
11
7.1682069149632888
21
-7.6653785928172198
31
0
0
CIRCLE
5
186
100
AcDbEntity
8
0
100
AcDbCircle
10
0
20
0
30
0
40
0.80000001192092896
0
LINE
5
187
100
AcDbEntity
8
0
100
AcDbLine
10
-7.6624084837886084
20
-7.1696306679813819
30
0
11
-2.1364572771902628
21
-1.6436794613830363
31
0
0
LINE
5
188
100
AcDbEntity
8
0
100
AcDbLine
10
-2.0560660171779825
20
-2.5532376950319144
30
0
11
-7.1682069149632888
21
-7.6653785928172198
31
0
0
ARC
5
189
100
AcDbEntity
8
0
100
AcDbCircle
10
1.9500000000000006
20
-2.6593037122098986
30
0
40
0.15000000000000033
100
AcDbArc
50
45.000000000000249
51
180
0
ARC
5
190
100
AcDbEntity
8
0
100
AcDbCircle
10
-1.9500000000000002
20
-2.6593037122098964
30
0
40
0.15000000000000013
100
AcDbArc
50
0
51
135.00000000000011
0
ARC
5
191
100
AcDbEntity
8
0
100
AcDbCircle
10
-1.9499999999999997
20
2.6593037122098977
30
0
40
0.14999999999999972
100
AcDbArc
50
-135
51
0
0
ARC
5
192
100
AcDbEntity
8
0
100
AcDbCircle
10
1.9500000000000002
20
2.6593037122098986
30
0
40
0.15000000000000013
100
AcDbArc
50
180
51
314.99999999999977
0
ARC
5
193
100
AcDbEntity
8
0
100
AcDbCircle
10
3.6920921958006714
20
-0.088044542772629963
30
0
40
2.2000000000000046
100
AcDbArc
50
186.1197291164905
51
224.99999999999997
0
ARC
5
194
100
AcDbEntity
8
0
100
AcDbCircle
10
3.6920921958006669
20
0.088044542772631962
30
0
40
2.2000000000000002
100
AcDbArc
50
135
51
173.88027088350961
0
ARC
5
195
100
AcDbEntity
8
0
100
AcDbCircle
10
-3.6920921958006674
20
-0.088044542772631518
30
0
40
2.2000000000000002
100
AcDbArc
50
315
51
353.88027088350935
0
ARC
5
196
100
AcDbEntity
8
0
100
AcDbCircle
10
-3.6920921958006492
20
0.088044542772641177
30
0
40
2.1999999999999815
100
AcDbArc
50
6.1197291164903982
51
45.000000000000227
0
ARC
5
197
100
AcDbEntity
8
0
100
AcDbCircle
10
-7.8539933525901944
20
-9.3681239364301767
30
0
40
0.20000000149011612
100
AcDbArc
50
-82.520542477106616
51
0
0
ARC
5
198
100
AcDbEntity
8
0
100
AcDbCircle
10
-7.8953939946138121
20
-9.0527812120440245
30
0
40
0.51804881375522716
100
AcDbArc
50
259.0759139570801
51
277.47945752289365
0
LINE
5
199
100
AcDbEntity
8
0
100
AcDbLine
10
-7.6539933511000804
20
-9.3681239364301767
30
0
11
-7.6539933511000804
21
-9.0795921551903156
31
0
0
ARC
5
200
100
AcDbEntity
8
0
100
AcDbCircle
10
-8.6379710813549551
20
-10.078170068878533
30
0
40
0.78304495704798982
100
AcDbArc
50
47.034425202633926
51
93.17624942077326
0
ARC
5
201
100
AcDbEntity
8
0
100
AcDbCircle
10
-5.3525823861129256
20
-9.0795921551903191
30
0
40
2.3014109649871544
100
AcDbArc
50
142.0845113016826
51
180
0
LINE
5
202
100
AcDbEntity
8
0
100
AcDbLine
10
-8.5989935795721451
20
-8.6011905105954902
30
0
11
-8.2806499184716582
21
-8.283138135290498
31
0
0
LINE
5
203
100
AcDbEntity
8
0
100
AcDbLine
10
-9.3650616092662347
20
-7.6554886097010293
30
0
11
-9.0765299489210687
21
-7.6557527382845167
31
0
0
ARC
5
204
100
AcDbEntity
8
0
100
AcDbCircle
10
-9.3652446938362068
20
-7.8554885273912269
30
0
40
0.20000000149011751
100
AcDbArc
50
89.947550127298427
51
172.4680926044054
0
ARC
5
205
100
AcDbEntity
8
0
100
AcDbCircle
10
-9.0499400006719473
20
-7.8971778240012798
30
0
40
0.51804881375522638
100
AcDbArc
50
172.46809260440523
51
190.87163617021534
0
ARC
5
206
100
AcDbEntity
8
0
100
AcDbCircle
10
-10.076008199896872
20
-8.6388159352203999
30
0
40
0.78304495704799115
100
AcDbArc
50
-3.2286992934742313
51
42.913124924666128
0
ARC
5
207
100
AcDbEntity
8
0
100
AcDbCircle
10
-9.0744301681796333
20
-5.3619713697936184
30
0
40
2.2937823295847304
100
AcDbArc
50
269.94755012729911
51
307.99455666461159
0
ARC
5
208
100
AcDbEntity
8
0
100
AcDbCircle
10
-9.3377292336887603
20
-7.952449558214119
30
0
40
0.22500000000007719
100
AcDbArc
50
190.87163617021898
51
222.91312492465724
0
ARC
5
209
100
AcDbEntity
8
0
100
AcDbCircle
10
-7.9509291545057676
20
-9.3405197274693208
30
0
40
0.22499999999994444
100
AcDbArc
50
227.03442520262888
51
259.075913957083
0
ARC
5
210
100
AcDbEntity
8
0
100
AcDbCircle
10
-9.0744301681796333
20
5.3619713697936184
30
0
40
2.2937823295847286
100
AcDbArc
50
52.005443335388428
51
90.052449872700848
0
ARC
5
211
100
AcDbEntity
8
0
100
AcDbCircle
10
-5.3525823861129256
20
9.0795921551903191
30
0
40
2.3014109649871548
100
AcDbArc
50
180
51
217.91548869831738
0
LINE
5
212
100
AcDbEntity
8
0
100
AcDbLine
10
-7.6539933511000804
20
9.3681239364301767
30
0
11
-7.6539933511000804
21
9.0795921551903156
31
0
0
ARC
5
213
100
AcDbEntity
8
0
100
AcDbCircle
10
-7.8539933525901944
20
9.3681239364301767
30
0
40
0.20000000149011665
100
AcDbArc
50
0
51
82.520542477106659
0
ARC
5
214
100
AcDbEntity
8
0
100
AcDbCircle
10
-7.8953939946138121
20
9.0527812120440245
30
0
40
0.51804881375522649
100
AcDbArc
50
82.520542477106289
51
100.9240860429199
0
ARC
5
215
100
AcDbEntity
8
0
100
AcDbCircle
10
-7.9509291545057676
20
9.3405197274693208
30
0
40
0.22499999999994416
100
AcDbArc
50
100.92408604291695
51
132.96557479737112
0
ARC
5
216
100
AcDbEntity
8
0
100
AcDbCircle
10
-8.6379710813549551
20
10.078170068878533
30
0
40
0.78304495704799004
100
AcDbArc
50
266.82375057922678
51
312.96557479736606
0
LINE
5
217
100
AcDbEntity
8
0
100
AcDbLine
10
-9.3650616092662347
20
7.6554886097010293
30
0
11
-9.0765299489210687
21
7.6557527382845167
31
0
0
ARC
5
218
100
AcDbEntity
8
0
100
AcDbCircle
10
-9.3652446938362068
20
7.8554885273912269
30
0
40
0.20000000149011543
100
AcDbArc
50
187.5319073955946
51
270.05244987270157
0
ARC
5
219
100
AcDbEntity
8
0
100
AcDbCircle
10
-9.0499400006719473
20
7.8971778240012798
30
0
40
0.5180488137552266
100
AcDbArc
50
169.12836382978463
51
187.53190739559477
0
ARC
5
220
100
AcDbEntity
8
0
100
AcDbCircle
10
-10.076008199896872
20
8.6388159352203999
30
0
40
0.78304495704799293
100
AcDbArc
50
-42.913124924666135
51
3.2286992934742336
0
ARC
5
221
100
AcDbEntity
8
0
100
AcDbCircle
10
-9.3377292336887603
20
7.952449558214119
30
0
40
0.22500000000007772
100
AcDbArc
50
137.08687507534276
51
169.12836382978105
0
ARC
5
222
100
AcDbEntity
8
0
100
AcDbCircle
10
9.0744301681796333
20
-5.3619713697936184
30
0
40
2.2937823295847286
100
AcDbArc
50
232.00544333538843
51
270.05244987270083
0
ARC
5
223
100
AcDbEntity
8
0
100
AcDbCircle
10
5.3525823861129256
20
-9.0795921551903191
30
0
40
2.3014109649871548
100
AcDbArc
50
0
51
37.915488698317411
0
LINE
5
224
100
AcDbEntity
8
0
100
AcDbLine
10
7.6539933511000804
20
-9.3681239364301767
30
0
11
7.6539933511000804
21
-9.0795921551903156
31
0
0
ARC
5
225
100
AcDbEntity
8
0
100
AcDbCircle
10
7.8539933525901944
20
-9.3681239364301767
30
0
40
0.20000000149011665
100
AcDbArc
50
180
51
262.52054247710663
0
ARC
5
226
100
AcDbEntity
8
0
100
AcDbCircle
10
7.8953939946138121
20
-9.0527812120440245
30
0
40
0.51804881375522649
100
AcDbArc
50
262.52054247710635
51
280.9240860429199
0
ARC
5
227
100
AcDbEntity
8
0
100
AcDbCircle
10
7.9509291545057676
20
-9.3405197274693208
30
0
40
0.22499999999994416
100
AcDbArc
50
280.924086042917
51
312.96557479737106
0
ARC
5
228
100
AcDbEntity
8
0
100
AcDbCircle
10
8.6379710813549551
20
-10.078170068878533
30
0
40
0.78304495704799004
100
AcDbArc
50
86.823750579226754
51
132.96557479736609
0
ARC
5
229
100
AcDbEntity
8
0
100
AcDbCircle
10
8.5989935795721451
20
-8.6011905105954902
30
0
40
0.69999999999999363
100
AcDbArc
50
276.75725170891695
51
353.29519816378365
0
ARC
5
230
100
AcDbEntity
8
0
100
AcDbCircle
10
10.076008199896872
20
-8.6388159352203999
30
0
40
0.78304495704799293
100
AcDbArc
50
137.08687507533386
51
183.22869929347422
0
ARC
5
231
100
AcDbEntity
8
0
100
AcDbCircle
10
9.3652446938362068
20
-7.8554885273912269
30
0
40
0.20000000149011543
100
AcDbArc
50
7.5319073955945894
51
90.052449872701573
0
ARC
5
232
100
AcDbEntity
8
0
100
AcDbCircle
10
9.0499400006719473
20
-7.8971778240012789
30
0
40
0.51804881375522671
100
AcDbArc
50
-10.871636170215492
51
7.5319073955947839
0
ARC
5
233
100
AcDbEntity
8
0
100
AcDbCircle
10
9.3377292336887603
20
-7.9524495582141199
30
0
40
0.22500000000007711
100
AcDbArc
50
317.0868750753429
51
349.12836382978128
0
ARC
5
234
100
AcDbEntity
8
0
100
AcDbCircle
10
9.0744301681796333
20
5.3619713697936184
30
0
40
2.2937823295847277
100
AcDbArc
50
89.947550127299152
51
127.99455666461158
0
ARC
5
235
100
AcDbEntity
8
0
100
AcDbCircle
10
5.3525823861129256
20
9.0795921551903191
30
0
40
2.3014109649871566
100
AcDbArc
50
322.0845113016826
51
360
0
LINE
5
236
100
AcDbEntity
8
0
100
AcDbLine
10
9.3650616092662347
20
7.6554886097010293
30
0
11
9.0765299489210687
21
7.6557527382845167
31
0
0
ARC
5
237
100
AcDbEntity
8
0
100
AcDbCircle
10
9.3652446938362068
20
7.8554885273912269
30
0
40
0.20000000149011751
100
AcDbArc
50
269.94755012729837
51
352.46809260440546
0
ARC
5
238
100
AcDbEntity
8
0
100
AcDbCircle
10
9.0499400006719473
20
7.8971778240012798
30
0
40
0.51804881375522638
100
AcDbArc
50
-7.5319073955947689
51
10.871636170215377
0
ARC
5
239
100
AcDbEntity
8
0
100
AcDbCircle
10
9.3377292336887603
20
7.952449558214119
30
0
40
0.22500000000007719
100
AcDbArc
50
10.871636170218952
51
42.913124924657232
0
ARC
5
240
100
AcDbEntity
8
0
100
AcDbCircle
10
10.076008199896872
20
8.6388159352203999
30
0
40
0.78304495704799115
100
AcDbArc
50
176.77130070652575
51
222.91312492466614
0
ARC
5
241
100
AcDbEntity
8
0
100
AcDbCircle
10
8.5989935795721451
20
8.6011905105954902
30
0
40
0.69999999999999363
100
AcDbArc
50
6.7048018362163599
51
83.242748291083046
0
ARC
5
242
100
AcDbEntity
8
0
100
AcDbCircle
10
8.6379710813549551
20
10.078170068878533
30
0
40
0.78304495704798982
100
AcDbArc
50
227.03442520263391
51
273.17624942077327
0
ARC
5
243
100
AcDbEntity
8
0
100
AcDbCircle
10
7.9509291545057676
20
9.3405197274693208
30
0
40
0.22499999999994444
100
AcDbArc
50
47.034425202628888
51
79.075913957083031
0
ARC
5
244
100
AcDbEntity
8
0
100
AcDbCircle
10
7.8953939946138121
20
9.0527812120440245
30
0
40
0.51804881375522716
100
AcDbArc
50
79.075913957080118
51
97.479457522893711
0
ARC
5
245
100
AcDbEntity
8
0
100
AcDbCircle
10
7.8539933525901944
20
9.3681239364301767
30
0
40
0.20000000149011612
100
AcDbArc
50
97.479457522893341
51
180
0
LINE
5
246
100
AcDbEntity
8
0
100
AcDbLine
10
7.6539933511000804
20
9.3681239364301767
30
0
11
7.6539933511000804
21
9.0795921551903156
31
0
0
LINE
5
247
100
AcDbEntity
8
0
100
AcDbLine
10
9.3650616092662347
20
-7.6554886097010293
30
0
11
9.0765299489210687
21
-7.6557527382845159
31
0
0
ENDSEC
0
SECTION
2
OBJECTS
0
DICTIONARY
5
C
100
AcDbDictionary
3
ACAD_GROUP
350
D
3
ACAD_MLINESTYLE
350
17
0
DICTIONARY
5
D
100
AcDbDictionary
0
DICTIONARY
5
1A
330
C
100
AcDbDictionary
0
DICTIONARY
5
17
100
AcDbDictionary
0
ENDSEC
0
EOF
